# xmcd CD database file
#
# Track frame offsets:
#	150
#	14437
#	28130
#	44199
#	57599
#	75277
#	89695
#	102545
#	126808
#	140445
#	158966
#
# Disc length: 2276 seconds
#
# Revision: 0
# Processed by: cddbd v1.5.2PL0 Copyright (c) Steve Scherf et al.
# Submitted via: CDex 1.51
#
DISCID=9b08e20b
DTITLE=The London Jazz Four - Take a New Look at The Beatles
DYEAR=2005
DGENRE=Jazz
TTITLE0=I Feel Fine
TTITLE1=Paperback Writer
TTITLE2=Rain
TTITLE3=Michelle
TTITLE4=Yes It Is
TTITLE5=Please Please Me
TTITLE6=Things We Said Today
TTITLE7=From Me To You
TTITLE8=A Hard Day's Night
TTITLE9=Ticket To Ride
TTITLE10=Yellow Submarine
EXTD=YEAR: 2005
EXTT0=
EXTT1=
EXTT2=
EXTT3=
EXTT4=
EXTT5=
EXTT6=
EXTT7=
EXTT8=
EXTT9=
EXTT10=
PLAYORDER=
